<svg xmlns="http://www.w3.org/2000/svg" width="261.4" height="49.9" viewBox="0 0 261.4 49.9">
  <path fill="#333" d="M11.3 17.2c0-1.9-1-2.9-2.9-2.9h-.9c-1.9 0-2.9 1-2.9 2.9v19.1c0 1.9 1 2.9 2.9 2.9h.9c1.9 0 2.9-1 2.9-2.9v-6.5h4.6v6.3c0 4.9-2.5 7.4-7.4 7.4H7.4C2.5 43.5 0 41 0 36.1V17.4C0 12.5 2.5 10 7.4 10h1.2c4.9 0 7.3 2.4 7.3 7.3v5.4h-4.6v-5.5zM19.2 31.7c0-4.1 1.3-5.7 4.9-6.9l6.2-2.1v-5.5c0-1.9-1-3-2.9-3H27c-1.9 0-2.9 1-2.9 3v4.1h-4.5v-3.9c0-4.9 2.5-7.4 7.4-7.4h.5c4.9 0 7.4 2.5 7.4 7.4v25.8h-4.6v-2.1c-1.3 1.2-3 2.4-5.7 2.4-3.7 0-5.4-2.1-5.4-5.8v-6zm11.1 5.9V26.9l-4.2 1.5c-1.7.7-2.3 1.5-2.3 3.4v5c0 1.6.8 2.4 2.3 2.4 1.4 0 2.7-.5 4.2-1.6zM38.5 10.3h4.6v2.1c1.1-1.2 3-2.5 5.7-2.5 4 0 5.9 2.6 5.9 6.5V37c0 3.9-1.9 6.5-5.9 6.5-2.7 0-4.6-1.3-5.7-2.4v8.7h-4.6V10.3zm4.6 27.2c1.3 1.1 2.7 1.7 4.3 1.7 1.7 0 2.7-.8 2.7-2.7V17c0-1.9-1-2.7-2.7-2.7-1.5 0-3 .6-4.3 1.7v21.5zM58 1.8h4.9V7H58V1.8zm.2 8.5h4.6v32.8h-4.6V10.3zM72.6 43.2H68V14.6h-2.2v-4.3H68V4.9h4.6v5.5H76v4.3h-3.3l-.1 28.5zM86.1 43.5c-4.9 0-7.4-2.5-7.4-7.4V17.4c0-4.9 2.5-7.4 7.4-7.4h1.3c4.9 0 7.4 2.5 7.4 7.4v18.7c0 4.9-2.5 7.4-7.4 7.4h-1.3zm.1-29.2c-1.9 0-2.9 1-2.9 2.9v19.1c0 1.9 1 2.9 2.9 2.9h1.1c1.9 0 2.9-1 2.9-2.9V17.2c0-1.9-1-2.9-2.9-2.9h-1.1zM98.4 0h4.6v43.2h-4.6V0zM106.5 10.3h4.6l2.9 24.1 3.4-24.1h4.4l3.5 24.1 2.8-24.1h4.4l-5 32.8h-4.7l-3.2-22.9-3.3 22.9h-4.7l-5.1-32.8zM142.5 43.5c-4.9 0-7.4-2.5-7.4-7.4V17.4c0-4.9 2.5-7.4 7.4-7.4h1.3c4.9 0 7.4 2.5 7.4 7.4v18.7c0 4.9-2.5 7.4-7.4 7.4h-1.3zm.1-29.2c-1.9 0-2.9 1-2.9 2.9v19.1c0 1.9 1 2.9 2.9 2.9h1.1c1.9 0 2.9-1 2.9-2.9V17.2c0-1.9-1-2.9-2.9-2.9h-1.1zM154.8 10.3h4.6v3.5c1.4-2.6 2.8-3.8 5.3-3.8v5.2c-2.4.2-4 .9-5.3 2.1v25.8h-4.6V10.3zM183.6 43.2H179v-2.1c-1.1 1.2-3 2.5-5.7 2.5-4 0-5.9-2.6-5.9-6.5V16.5c0-3.9 1.9-6.5 5.9-6.5 2.7 0 4.6 1.3 5.7 2.4V0h4.6v43.2zM179 16.1c-1.3-1.1-2.7-1.7-4.3-1.7-1.7 0-2.7.8-2.7 2.7v19.5c0 1.9 1 2.7 2.7 2.7 1.5 0 3-.6 4.3-1.7V16.1zM198 17c0-1.9-.9-2.8-2.8-2.8h-.8c-1.9 0-2.8.9-2.8 2.8v2.9c0 1.5.4 2.3 1.7 3.1l5.5 3.4c2.7 1.7 3.8 3.2 3.8 6.5v3.3c0 4.9-2.5 7.4-7.4 7.4h-.9c-4.9 0-7.3-2.5-7.3-7.3v-4.9h4.6v5.2c0 1.9.9 2.8 2.8 2.8h.9c1.9 0 2.8-.9 2.8-2.8v-3.1c0-1.4-.5-2.3-1.7-3.1l-5.5-3.4c-2.6-1.7-3.8-3.2-3.8-6.5v-3c0-4.9 2.5-7.4 7.4-7.4h.8c4.9 0 7.3 2.5 7.3 7.3V22H198v-5zM252.2 43.7c-5.1 0-9.2-4.1-9.2-9.2s4.1-9.2 9.2-9.2 9.2 4.1 9.2 9.2c0 5-4.2 9.2-9.2 9.2zm0-17.1c-4.4 0-7.9 3.5-7.9 7.9s3.5 7.9 7.9 7.9 7.9-3.5 7.9-7.9-3.6-7.9-7.9-7.9z"/>
  <path fill="#333" d="M252.092 36.262l-.69-.127 1.58-8.556.687.126z"/>
  <path fill="#333" d="M250.8 34.1h6v.7h-6zM231.7 11.2c1 0 1.7.8 1.7 1.7v9.7c0 1-.8 1.7-1.7 1.7H230c-.4 0-.7.2-.8.5-.3.3-1.4 1.2-2.7 2.2l.2-1.5c0-.3 0-.6-.2-.8-.2-.2-.5-.3-.7-.3h-6.3c-1 0-1.7-.8-1.7-1.7V13c0-1 .8-1.7 1.7-1.7l12.2-.1m0-1h-12.2c-1.5 0-2.7 1.2-2.7 2.7v9.7c0 1.5 1.2 2.7 2.7 2.7h6.3l-.6 3.9s4.8-3.6 4.8-3.9h1.7c1.5 0 2.7-1.2 2.7-2.7V13c.1-1.5-1.1-2.8-2.7-2.8zM250 15.9c.2.2-.1.3-.3.5l-20.2 21.8c-.2.2-.3.5-.5.4-.2-.2.1-.3.3-.6l20.2-21.8c.1-.2.3-.5.5-.3z"/>
</svg>
