<svg xmlns="http://www.w3.org/2000/svg" width="246.6" height="57" viewBox="0 0 246.6 57">
  <path fill="#333" d="M49.4 42.7v4.2h-1.6v-4.1c-.4-.3-.9-.6-1.4-1v5.1h-2.8v-6.6c-1.2-.5-2.7-1-4.4-1.5v8h-3.5v-8.7c-1.7-.3-3.6-.4-5.7-.5v9.2h-4.5v-9.2c-2.1.1-4 .3-5.7.5v8.7h-3.5v-8c-1.7.4-3.2.9-4.4 1.4v6.6H9v-5.1c-.7.4-1.2.8-1.6 1.1v4H6v-4.2.4s4.8-7 21.7-7 21.7 7 21.7 7v-.3zM27.7 11.9c-11 0-14.2 13.9-14.2 13.9S16.7 24 27.7 24s14.2 1.8 14.2 1.8-3.1-13.9-14.2-13.9zM27.7 5.3c-3 0-3.9 5.9-3.9 5.9s.8-1.8 3.9-1.8c3 0 3.9 1.8 3.9 1.8s-.9-5.9-3.9-5.9z"/>
  <path fill="#333" d="M27.7 26.8c-14.6 0-18.7 5-18.7 5v4.9s4.1-3.8 18.7-3.8 18.7 3.8 18.7 3.8v-4.9s-4.1-5-18.7-5zM27.7 8.5c-3.5 0-4.5 2.1-4.5 2.1v3.7s1-2.1 4.5-2.1 4.5 2.1 4.5 2.1v-3.7s-1-2.1-4.5-2.1zM29.5 3.3c0 1.6-.8 2.7-1.9 2.7-1 0-1.9-1.1-1.9-2.7C25.8 1.6 27 0 27.6 0c.7 0 1.9 1.6 1.9 3.3zM0 57v-4.3h2.6V50h50.1l.1 2.7h2.6V57"/>
  <g>
    <g fill="#333">
      <path d="M77.7 36.4c0-5.7 4.3-9.7 9.9-9.7 4.1 0 6.5 2.2 7.8 4.6L92.1 33c-.8-1.5-2.5-2.7-4.4-2.7-3.4 0-5.9 2.6-5.9 6.1s2.5 6.1 5.9 6.1c1.9 0 3.6-1.2 4.4-2.7l3.4 1.7c-1.3 2.3-3.7 4.6-7.8 4.6-5.6 0-10-3.9-10-9.7zM96.9 39c0-3.8 2.7-7.1 7.1-7.1 4.5 0 7.2 3.2 7.2 7.1 0 3.9-2.7 7.1-7.2 7.1-4.4 0-7.1-3.3-7.1-7.1zm10.6 0c0-2.1-1.3-3.9-3.5-3.9s-3.4 1.8-3.4 3.9c0 2.1 1.2 3.9 3.4 3.9s3.5-1.8 3.5-3.9zM123 45.8v-8.2c0-1.9-1-2.5-2.5-2.5-1.4 0-2.5.8-3.1 1.6v9.1h-3.6V32.2h3.6V34c.9-1 2.5-2.1 4.7-2.1 3 0 4.4 1.7 4.4 4.3v9.5H123zM129.8 49.2l1.6-2.6c1.1 1.2 2.5 1.7 4.2 1.7s3.7-.8 3.7-3.4v-1.4c-1.1 1.3-2.5 2.1-4.2 2.1-3.4 0-6-2.4-6-6.9 0-4.4 2.5-6.9 6-6.9 1.6 0 3.1.7 4.2 2.1v-1.7h3.6v12.6c0 5.2-4 6.4-7.3 6.4-2.3 0-4.1-.5-5.8-2zm9.5-8.2v-4.4c-.6-.9-1.9-1.5-3.1-1.5-2 0-3.4 1.4-3.4 3.7 0 2.3 1.4 3.7 3.4 3.7 1.2 0 2.5-.7 3.1-1.5zM146.4 45.8V32.2h3.6V34c1-1.2 2.6-2.2 4.3-2.2v3.5c-.3-.1-.6-.1-1-.1-1.2 0-2.7.7-3.3 1.5v8.9h-3.6zM155.6 39c0-3.9 2.9-7.1 7-7.1 4 0 6.8 3 6.8 7.4v.8h-10.1c.2 1.7 1.6 3.1 3.9 3.1 1.1 0 2.7-.5 3.6-1.3l1.6 2.3c-1.3 1.2-3.5 1.9-5.6 1.9-4 0-7.2-2.8-7.2-7.1zm7-4.3c-2.2 0-3.2 1.7-3.3 3h6.7c-.1-1.3-1-3-3.4-3zM170.8 44l1.5-2.5c1 .9 3 1.8 4.7 1.8 1.5 0 2.3-.6 2.3-1.5 0-2.2-8-.4-8-5.7 0-2.3 2-4.3 5.5-4.3 2.3 0 4.1.8 5.5 1.8l-1.4 2.4c-.8-.9-2.4-1.6-4-1.6-1.3 0-2.1.6-2.1 1.3 0 2 8 .3 8 5.8 0 2.5-2.1 4.3-5.9 4.3-2.4.3-4.6-.5-6.1-1.8zM184.2 44l1.5-2.5c1 .9 3 1.8 4.7 1.8 1.5 0 2.3-.6 2.3-1.5 0-2.2-8-.4-8-5.7 0-2.3 2-4.3 5.5-4.3 2.3 0 4.1.8 5.5 1.8l-1.4 2.4c-.8-.9-2.4-1.6-4-1.6-1.3 0-2.1.6-2.1 1.3 0 2 8 .3 8 5.8 0 2.5-2.1 4.3-5.9 4.3-2.4.3-4.7-.5-6.1-1.8zM218.8 45.8l-1.1-3.2h-8l-1.2 3.2H204l7.2-18.7h5l7.2 18.7h-4.6zm-5.1-14.7l-2.9 8h5.8l-2.9-8zM225.1 45.8V27.1h8.7c4.1 0 6.3 2.7 6.3 6 0 3.2-2.2 6-6.3 6H229v6.6h-3.9zm11-12.7c0-1.6-1.2-2.5-2.7-2.5h-4.2v5h4.2c1.5 0 2.7-1 2.7-2.5zM242.6 45.8V27.1h4v18.7h-4z"/>
    </g>
  </g>
</svg>
