<svg xmlns="http://www.w3.org/2000/svg" width="167" height="24.8" viewBox="0 0 167 24.8"><path d="M0 1h13.7v4.2H4.8v2.9h8.7v4.2H4.8v3.2h8.9v4.2H0V1zM22 15.6l-2.6 4.1h-4.7l4.6-6.9L15 6.2h4.7L22 9.8l2.3-3.7H29l-4.3 6.6 4.6 6.9h-4.7l-2.6-4zM30.7 24.8V6.2H35v1.6c1.1-1.3 2.5-1.9 4-1.9 3.4 0 5.9 2.5 5.9 7.1s-2.5 7.1-5.9 7.1c-1.5 0-2.9-.6-4-1.9v6.7h-4.3zm6.9-15.2c-.9 0-2 .5-2.6 1.2V15c.5.7 1.7 1.2 2.6 1.2 1.7 0 3-1.3 3-3.3 0-2-1.3-3.3-3-3.3zM53.5 5.8c4 0 6.9 2.9 6.9 7.5v.9h-9.6c.3 1.3 1.4 2.4 3.4 2.4 1.2 0 2.5-.5 3.3-1.1l1.8 2.7C58 19.4 55.8 20 53.7 20c-4.2 0-7.4-2.7-7.4-7.1 0-3.9 3-7.1 7.2-7.1zm-2.7 5.7h5.6c-.1-1-.8-2.3-2.8-2.3-1.9 0-2.7 1.3-2.8 2.3zM71.7 11.9c0-1.7-.9-2.2-2.2-2.2-1.3 0-2.1.7-2.6 1.3v8.7h-4.3V6.2h4.3v1.7c.8-1 2.4-2 4.7-2 3.1 0 4.5 1.8 4.5 4.3v9.6h-4.3v-7.9zM88.3 18.1c-1.1 1.3-2.5 1.9-4 1.9-3.3 0-6-2.5-6-7.1 0-4.4 2.6-7.1 6-7.1 1.5 0 2.9.6 4 1.9V1h4.3v18.7h-4.3v-1.6zm0-7.3c-.6-.7-1.7-1.2-2.6-1.2-1.7 0-3 1.3-3 3.3 0 2 1.3 3.3 3 3.3.9 0 2-.5 2.6-1.2v-4.2zM95.4 2.5c0-1.4 1.1-2.5 2.5-2.5s2.5 1.1 2.5 2.5S99.3 5 97.9 5s-2.5-1.2-2.5-2.5zm.3 3.7h4.3v13.5h-4.3V6.2zM104.1 16V9.9h-2.2V6.2h2.2V2.5h4.3v3.7h2.7V10h-2.7v4.9c0 .8.4 1.4 1.2 1.4.5 0 1-.2 1.1-.3l.8 3.2c-.5.5-1.6.9-3.2.9-2.7-.1-4.2-1.5-4.2-4.1zM122.4 18.1c-.8 1-2.4 2-4.7 2-3.1 0-4.5-1.7-4.5-4.2V6.2h4.3V14c0 1.6.8 2.2 2.2 2.2 1.2 0 2.1-.7 2.6-1.3V6.2h4.3v13.5h-4.3v-1.6zM129.8 6.2h4.3v1.7c.9-1.1 2.6-2 4.2-2V10c-.3-.1-.6-.1-1.1-.1-1.1 0-2.6.5-3.2 1.3v8.6h-4.3V6.2zM146.6 5.8c4 0 6.9 2.9 6.9 7.5v.9h-9.6c.3 1.3 1.4 2.4 3.4 2.4 1.2 0 2.5-.5 3.3-1.1l1.8 2.7c-1.3 1.2-3.6 1.8-5.7 1.8-4.2 0-7.4-2.7-7.4-7.1.1-3.9 3.1-7.1 7.3-7.1zm-2.7 5.7h5.6c-.1-1-.8-2.3-2.8-2.3-1.9 0-2.7 1.3-2.8 2.3zM156.3 15c1 .9 3.2 1.8 4.8 1.8 1.3 0 1.8-.4 1.8-1s-1-.8-2.3-1.1c-2.3-.4-5.5-.9-5.5-4.4 0-2.4 2-4.5 5.8-4.5 2.3 0 4.2.7 5.7 1.8l-1.7 2.9c-.8-.8-2.4-1.5-4-1.5-1 0-1.7.4-1.7 1s.7.7 2.2 1c2.3.4 5.7 1 5.7 4.6 0 2.6-2.3 4.5-6.2 4.5-2.4 0-4.9-.8-6.3-2.1l1.7-3z"/></svg>