<svg xmlns="http://www.w3.org/2000/svg" width="252.6" height="24.4" viewBox="0 0 252.6 24.4">
  <g fill="#333">
    <path d="M12.8 19.2v-7.8H4v7.8H0V.5h4v7.3h8.8V.5h4v18.7h-4zM19.5 12.4c0-3.8 2.7-7.1 7.1-7.1 4.5 0 7.2 3.2 7.2 7.1 0 3.9-2.7 7.1-7.2 7.1-4.4 0-7.1-3.2-7.1-7.1zm10.6 0c0-2.1-1.3-3.9-3.5-3.9s-3.4 1.8-3.4 3.9c0 2.1 1.2 3.9 3.4 3.9s3.5-1.7 3.5-3.9zM45.6 19.2v-1.7c-.9 1-2.5 2-4.8 2-3 0-4.4-1.6-4.4-4.3V5.7H40v8.2c0 1.9 1 2.5 2.5 2.5 1.4 0 2.5-.8 3.1-1.5V5.7h3.6v13.5h-3.6zM51.5 17.4L53 15c1 .9 3 1.8 4.7 1.8 1.5 0 2.3-.6 2.3-1.5 0-2.2-8-.4-8-5.7 0-2.3 2-4.3 5.5-4.3 2.3 0 4.1.8 5.5 1.8l-1.4 2.4c-.8-.9-2.4-1.6-4-1.6-1.3 0-2.1.6-2.1 1.3 0 2 8 .3 8 5.8 0 2.5-2.1 4.3-5.9 4.3-2.4.2-4.7-.5-6.1-1.9zM65.2 12.4c0-3.9 2.9-7.1 7-7.1 4 0 6.8 3 6.8 7.4v.8H68.9c.2 1.7 1.6 3.1 3.9 3.1 1.1 0 2.7-.5 3.6-1.3l1.6 2.3c-1.3 1.2-3.5 1.9-5.6 1.9-4.1 0-7.2-2.7-7.2-7.1zm7-4.2c-2.2 0-3.2 1.7-3.3 3h6.7c-.2-1.3-1.1-3-3.4-3zM88.8 19.2V.5H102V4h-9.2v4h9v3.5h-9v4.2h9.2v3.5H88.8zM113.4 19.2l-3.1-4.6-3.1 4.6h-3.9l4.8-6.9-4.5-6.6h4l2.8 4.2 2.8-4.2h4l-4.5 6.6 4.8 6.9h-4.1zM122.7 17.5v6.9h-3.6V5.7h3.6v1.7c1-1.3 2.5-2 4.2-2 3.5 0 6 2.6 6 7.1s-2.5 7.1-6 7.1c-1.7-.1-3.1-.7-4.2-2.1zm6.4-5.1c0-2.3-1.4-3.9-3.4-3.9-1.1 0-2.5.7-3.1 1.5v4.8c.6.8 1.9 1.5 3.1 1.5 2.1.1 3.4-1.5 3.4-3.9zM134.6 12.4c0-3.9 2.9-7.1 7-7.1 4 0 6.8 3 6.8 7.4v.8h-10.1c.2 1.7 1.6 3.1 3.9 3.1 1.1 0 2.7-.5 3.6-1.3l1.6 2.3c-1.3 1.2-3.5 1.9-5.6 1.9-4.1 0-7.2-2.7-7.2-7.1zm7-4.2c-2.2 0-3.2 1.7-3.3 3h6.7c-.2-1.3-1.1-3-3.4-3zM160 19.2V11c0-1.9-1-2.5-2.5-2.5-1.4 0-2.5.8-3.1 1.6v9.1h-3.6V5.7h3.6v1.8c.9-1 2.5-2.1 4.7-2.1 3 0 4.4 1.7 4.4 4.3v9.5H160zM176.4 19.2v-1.7c-1.1 1.3-2.5 2.1-4.2 2.1-3.4 0-6-2.6-6-7.1 0-4.4 2.5-7.1 6-7.1 1.6 0 3.1.7 4.2 2.1v-7h3.6v18.7h-3.6zm0-4.4V10c-.6-.9-1.9-1.5-3.1-1.5-2 0-3.4 1.6-3.4 3.9s1.4 3.9 3.4 3.9c1.2.1 2.5-.6 3.1-1.5zM183.2 2.1c0-1.2 1-2.1 2.1-2.1 1.2 0 2.1.9 2.1 2.1s-1 2.1-2.1 2.1-2.1-.9-2.1-2.1zm.3 17.1V5.7h3.6v13.5h-3.6zM191.3 15.8v-7h-2.2V5.7h2.2V2h3.6v3.7h2.7v3.1h-2.7v6.1c0 .8.4 1.5 1.2 1.5.5 0 1-.2 1.2-.4l.8 2.7c-.5.5-1.5.9-3 .9-2.4-.1-3.8-1.3-3.8-3.8zM209.2 19.2v-1.7c-.9 1-2.5 2-4.8 2-3 0-4.4-1.6-4.4-4.3V5.7h3.6v8.2c0 1.9 1 2.5 2.5 2.5 1.4 0 2.5-.8 3.1-1.5V5.7h3.6v13.5h-3.6zM216.3 19.2V5.7h3.6v1.8c1-1.2 2.6-2.2 4.3-2.2v3.5c-.3-.1-.6-.1-1-.1-1.2 0-2.7.7-3.3 1.5v8.9h-3.6zM225.5 12.4c0-3.9 2.9-7.1 7-7.1 4 0 6.8 3 6.8 7.4v.8h-10.1c.2 1.7 1.6 3.1 3.9 3.1 1.1 0 2.7-.5 3.6-1.3l1.6 2.3c-1.3 1.2-3.5 1.9-5.6 1.9-4.1 0-7.2-2.7-7.2-7.1zm7-4.2c-2.2 0-3.2 1.7-3.3 3h6.7c-.1-1.3-1-3-3.4-3zM240.7 17.4l1.5-2.5c1 .9 3 1.8 4.7 1.8 1.5 0 2.3-.6 2.3-1.5 0-2.2-8-.4-8-5.7 0-2.3 2-4.3 5.5-4.3 2.3 0 4.1.8 5.5 1.8l-1.4 2.4c-.8-.9-2.4-1.6-4-1.6-1.3 0-2.1.6-2.1 1.3 0 2 8 .3 8 5.8 0 2.5-2.1 4.3-5.9 4.3-2.4.3-4.7-.4-6.1-1.8z"/>
  </g>
</svg>
