<?xml version="1.0" encoding="utf-8"?>
<!-- Generator: Adobe Illustrator 18.1.1, SVG Export Plug-In . SVG Version: 6.00 Build 0)  -->
<svg version="1.1" id="Layer_1" xmlns="http://www.w3.org/2000/svg" xmlns:xlink="http://www.w3.org/1999/xlink" x="0px" y="0px"
	 viewBox="0 0 320.5 49" enable-background="new 0 0 320.5 49" xml:space="preserve">
<g>
	<g>
		<path fill="#333333" d="M9,33.7c-1.1,0-2.1-0.1-3.2-0.1c-1.1,0-2.2,0.1-3.4,0.1c-0.2,0-0.2,0-0.2-0.3c0-0.4,0-0.5,0.5-0.5
			c0.9,0,1.5-0.4,1.8-1.1c0.3-0.7,0.3-0.7,0.3-4.9v-8.5c0-2.7-0.3-3.3-1.9-3.5c-0.3-0.1-0.3-0.1-0.3-0.4c0-0.3,0.1-0.4,0.2-0.4
			c0.3,0,0.6,0.1,0.8,0.1c0.8,0,1.7,0.1,2.5,0.1c1,0,2,0,3-0.1c0.2,0,0.2,0.1,0.2,0.4c0,0.3,0,0.3-0.6,0.4c-1.1,0.2-1.5,0.6-1.5,2.1
			v12.3c0,2.9,0.3,3.5,2,3.6c0.2,0,0.3,0.1,0.3,0.2C9.5,33.7,9.5,33.7,9,33.7z"/>
		<path fill="#333333" d="M31.6,14.9c-0.9,0.1-1.5,0.6-1.8,1.5c-0.1,0.4-0.2,1-0.2,2.3c0,3.7,0,7.7,0,11.6c0,1.2,0.1,2.3,0.1,3.5
			c0,0.2-0.3,0.4-0.5,0.2c-0.2-0.2-0.6-0.7-1.5-1.9c-3.2-3.9-6.6-7.7-9.7-11.6c-1.4-1.8-2.3-2.8-2.9-3.5v10.3c0,4.6,0.5,5.7,2.9,5.7
			c0.2,0,0.2,0.1,0.2,0.2c0,0.4-0.1,0.5-0.5,0.5c-0.9,0-1.9-0.1-2.8-0.1c-0.9,0-2,0.1-2.9,0.1c-0.2,0-0.3-0.1-0.3-0.2
			c0-0.5,0.1-0.5,0.3-0.5c2.5-0.2,2.3-3.8,2.3-5.8c0-3.2,0.1-6.7-0.1-10c-0.1-1.8-0.4-2.2-2.1-2.3c-0.3,0-0.4-0.1-0.4-0.4
			c0-0.3,0.1-0.4,0.3-0.4c0.6,0,1.9,0.2,2.8,0.2c1.3,0,1.5,0,2-0.2c0.2,0.7,0.5,1.2,1.2,2.1c0.5,0.7,1,1.2,3.7,4.5
			c0.1,0.1,6.9,8.3,7.2,8.3c0.1,0,0.2-0.2,0.2-1c0-3.1,0.1-6.2,0.1-9.3c0-2.7-0.4-3.3-2.3-3.7c-0.5-0.1-0.5-0.1-0.5-0.3
			c0-0.4,0.1-0.5,0.3-0.5c0.5,0,1.5,0.1,2.3,0.1c1,0,2.5-0.1,3.1-0.1c0.2,0,0.2,0,0.2,0.3C32,14.8,32,14.8,31.6,14.9z"/>
		<path fill="#333333" d="M47.3,18.2c-0.3,0-0.3,0-0.4-0.1c-0.1-0.7-0.4-1.5-0.9-2c-0.8-0.8-1.9-1.1-4.2-1.1c-1.3,0-2.5,0-3.8,0
			c0,2.6,0,5.3,0,7.9h1.6c2.2,0,2.6,0,3-0.1c1.5-0.2,2.2-0.8,2.3-2.2c0-0.2,0.2-0.2,0.4-0.2c0.2,0,0.4,0,0.4,0.2c0,1-0.1,1-0.1,3
			c0,0.8,0,1.7,0,2.5c0,0.2-0.1,0.2-0.3,0.2c-0.3,0-0.4-0.1-0.4-0.3c-0.1-1.9-1.8-2.2-3.2-2.2c-1.2,0-2.5,0-3.7,0v3.1
			c0,2.1,0,2.9,0.1,4c0.1,1.5,0.7,2,2.7,2c0.2,0,0.5-0.1,0.5,0.3c0,0.5,0,0.6-0.3,0.6c-1.4,0-2.8-0.1-4.2-0.1c-0.8,0-2,0.1-3.2,0.2
			c-0.5,0-0.6,0-0.6-0.3c0-0.3,0.1-0.5,0.2-0.5c0.5,0,1.3-0.1,1.7-0.4c0.6-0.4,0.7-0.9,0.7-3.8V18.7c0-2.2,0-2.5-0.2-2.9
			c-0.3-0.6-0.8-0.8-1.9-0.9c-0.3,0-0.3,0-0.3-0.3c0-0.4,0-0.5,0.3-0.5c0.8,0,1.5,0.1,2.3,0.1c2.8,0,4,0,8.1,0c1.2,0,2.4,0,3.7,0
			c0.1,0,0.1,0,0.1,0.1c0,1.2,0.1,2.5,0.1,3.8C47.6,18.2,47.6,18.2,47.3,18.2z"/>
		<path fill="#333333" d="M63.6,33.5c0,0.4-3.5,0.2-5.2,0.2c-3.2-0.1-6.4-0.1-9.6,0c-0.4,0-0.4-0.1-0.4-0.4c0-0.3,0-0.4,0.3-0.4
			c0.8,0,1.7,0,2.2-0.8c0.4-0.6,0.5-1.4,0.5-3.6V17.2c0-1.6-0.5-2.3-2.2-2.3c-0.3,0-0.3-0.1-0.3-0.3c0-0.3,0.1-0.4,0.3-0.4
			c1.4,0.1,2,0.1,2.9,0.1c1.3,0,2.6-0.1,3.9-0.1c0.2,0,0.2,0.1,0.2,0.5c0,0.4-0.1,0.3-0.5,0.3c-1.2,0.2-1.8,0.5-1.9,1.2
			C54,16.7,54,17,54,20v4.5c0,5.1,0,5.4,0.2,6.3c0.3,1.3,1.4,1.9,3.6,1.9c3.5,0,4.8-1.2,6-4.2c0.1-0.2,0.2-0.2,0.4-0.1
			c0.3,0.1,0.3,0.1,0.2,0.4C64.1,30.2,63.6,32,63.6,33.5z"/>
		<path fill="#333333" d="M84.1,14.8c-1.1,0.2-1.9,0.4-2.1,1.6c-0.1,0.6-0.2,1.5-0.2,5.3c0,1.2,0,2.3,0,3.4c0,3.2-0.3,4.8-1.2,6
			c-1.3,1.9-3.8,2.9-6.6,2.9c-2.8,0-5.5-1.1-6.8-2.7c-0.9-1.1-1.1-2.2-1.1-5.1c0-3.1,0.2-6.2,0.2-9.3c0-1.7-0.3-2.1-1.6-2.1
			c-0.3,0-0.3,0-0.3-0.3c0-0.4,0-0.4,0.3-0.4c1.1,0.1,2.3,0.1,3.2,0.1c1,0,1.9-0.1,2.9-0.1c0.2,0,0.2,0,0.2,0.5c0,0.3,0,0.3-0.5,0.3
			c-1.2,0.1-1.6,0.6-1.7,1.8c-0.2,3-0.2,6-0.2,9c0,2.5,0.2,3.6,1,4.7c0.9,1.4,2.8,2.2,5.2,2.2c2.4,0,4.3-0.8,5.3-2.5
			c0.6-1,0.8-2.2,0.8-4.9c0-2.7,0.1-5.3,0-8c-0.1-1.7-0.8-2.4-2.5-2.4c-0.2,0-0.3,0-0.3-0.2c0-0.5,0-0.5,0.3-0.5c0.1,0,0.8,0,0.8,0
			s0.8,0,2.1,0c1,0,1.9-0.1,2.9-0.1c0.2,0,0.2,0.1,0.2,0.5C84.2,14.7,84.2,14.7,84.1,14.8z"/>
		<path fill="#333333" d="M100.3,33.5c0,0.2,0,0.2-0.2,0.2c-1.9,0-3.8-0.1-5.7-0.1c-1.8,0-5.4,0-6.9,0.1c-0.7,0-1.4,0.1-2,0.1
			c-0.4,0-0.4-0.1-0.4-0.5c0-0.3,0.1-0.3,0.4-0.3c1,0,1.7-0.3,2-0.8c0.3-0.5,0.3-0.7,0.3-2.6l0-9.6c0-3.4-0.1-3.9-0.3-4.4
			c-0.4-0.7-1-0.7-1.7-0.7c-0.3,0-0.3,0-0.3-0.3c0-0.4,0-0.4,0.4-0.4c1.3,0,2.5,0.1,3.8,0.1l7.9,0c0.7,0,1.4,0,1.9,0
			c0.3,0,0.4,0,0.4,0.3c0,0.6,0,1.2,0.1,1.9c0,0.5,0,0.9,0.1,1.4c0,0.5,0,0.5-0.3,0.5c-0.3,0-0.3,0-0.3-0.3c-0.2-1-0.6-1.6-1.3-2.2
			c-0.8-0.6-1.5-0.8-3.7-0.8c-2.1,0-3.2,0-4.1,0.1c0,2.5,0,5.1,0,7.7h3.6c2.3,0,2.5-0.1,3-0.6c0.4-0.5,0.5-1,0.6-1.6
			c0.1-0.2,0.1-0.2,0.4-0.2c0.2,0,0.3,0.1,0.3,0.2C98,21.4,98,22.3,98,23.2c0,0.9,0,1.9,0,2.8c0,0.2,0,0.2-0.2,0.2h-0.3
			c-0.2,0-0.2-0.2-0.2-0.3c0-1-0.5-1.8-1.5-2.1c-0.4-0.1-1.1-0.2-3.1-0.2h-2.6v2.3c0,4.5,0,5,0.3,5.6c0.3,0.8,1.7,1.2,4.1,1.2
			c3.4,0,4.6-0.7,5.9-3.9c0.1-0.2,0.2-0.2,0.4-0.1c0.3,0.1,0.3,0.2,0.2,0.5C100.5,32,100.5,32.1,100.3,33.5z"/>
		<path fill="#333333" d="M122.9,14.9c-0.9,0.1-1.5,0.6-1.8,1.5c-0.1,0.4-0.2,1-0.2,2.3c0,3.7,0,7.7,0,11.6c0,1.2,0.1,2.3,0.1,3.5
			c0,0.2-0.3,0.4-0.5,0.2c-0.2-0.2-0.6-0.7-1.5-1.9c-3.2-3.9-6.6-7.7-9.7-11.6c-1.4-1.8-2.3-2.8-2.9-3.5v10.3c0,4.6,0.5,5.7,2.9,5.7
			c0.2,0,0.2,0.1,0.2,0.2c0,0.4-0.1,0.5-0.5,0.5c-0.9,0-1.9-0.1-2.8-0.1c-0.9,0-2,0.1-2.9,0.1c-0.2,0-0.3-0.1-0.3-0.2
			c0-0.5,0.1-0.5,0.3-0.5c2.5-0.2,2.3-3.8,2.3-5.8c0-3.2,0.1-6.7-0.1-10c-0.1-1.8-0.4-2.2-2.1-2.3c-0.3,0-0.4-0.1-0.4-0.4
			c0-0.3,0.1-0.4,0.3-0.4c0.6,0,1.9,0.2,2.8,0.2c1.3,0,1.5,0,2-0.2c0.2,0.7,0.5,1.2,1.2,2.1c0.5,0.7,1,1.2,3.7,4.5
			c0.1,0.1,6.9,8.3,7.2,8.3c0.1,0,0.2-0.2,0.2-1c0-3.1,0.1-6.2,0.1-9.3c0-2.7-0.4-3.3-2.3-3.7c-0.5-0.1-0.5-0.1-0.5-0.3
			c0-0.4,0.1-0.5,0.3-0.5c0.5,0,1.5,0.1,2.3,0.1c1,0,2.5-0.1,3.1-0.1c0.2,0,0.2,0,0.2,0.3C123.3,14.8,123.3,14.8,122.9,14.9z"/>
		<path fill="#333333" d="M142.1,30.5c-0.1,0.7-0.2,1.3-0.2,2c-2,0.8-2.4,0.9-3,1.1c-1.2,0.4-2.6,0.5-3.9,0.5c-3.1,0-6-1-8.2-3.2
			C125,29,124,26.7,124,24c0-2.7,0.9-5.3,2.8-7.2c2-2.1,4.9-3.2,8-3.2c2,0,3,0.4,4.8,1c0.5,0.2,1.7,0.5,2.2,0.4c0,2.6,0,1.5,0.1,3.4
			c0,0.5,0.1,0.9,0.1,1.4c0,0.1,0,0.1-0.1,0.2l-0.3,0c-0.1,0-0.2-0.1-0.2-0.2c-0.1-0.3-0.2-0.9-0.4-1.5c-0.5-1.1-1.6-2.2-2.6-2.8
			c-1.1-0.7-2.3-1.1-3.7-1.1c-2.5,0-4.9,1.3-6.3,3.4c-1,1.5-1.5,3.4-1.5,5.5c0,2.8,1,5.4,2.8,7.2c1.5,1.6,3.7,2.7,6.1,2.7
			c1.9,0,3.4-0.5,4.7-2c0.7-0.8,1.3-1.8,1.4-2.5c0-0.1,0-0.2,0.2-0.2h0.3c0.1,0,0.1,0,0.1,0.2C142.4,29.3,142.2,29.9,142.1,30.5z"/>
		<path fill="#333333" d="M159.2,33.5c0,0.2,0,0.2-0.2,0.2c-1.9,0-3.8-0.1-5.7-0.1c-1.8,0-5.4,0-6.9,0.1c-0.7,0-1.4,0.1-2,0.1
			c-0.4,0-0.4-0.1-0.4-0.5c0-0.3,0.1-0.3,0.4-0.3c1,0,1.7-0.3,2-0.8c0.3-0.5,0.3-0.7,0.3-2.6l0-9.6c0-3.4-0.1-3.9-0.3-4.4
			c-0.4-0.7-1-0.7-1.7-0.7c-0.3,0-0.3,0-0.3-0.3c0-0.4,0-0.4,0.4-0.4c1.3,0,2.5,0.1,3.8,0.1l7.9,0c0.7,0,1.4,0,1.9,0
			c0.3,0,0.4,0,0.4,0.3c0,0.6,0,1.2,0.1,1.9c0,0.5,0,0.9,0.1,1.4c0,0.5,0,0.5-0.3,0.5c-0.3,0-0.3,0-0.3-0.3c-0.2-1-0.6-1.6-1.3-2.2
			c-0.8-0.6-1.5-0.8-3.7-0.8c-2.1,0-3.2,0-4.1,0.1c0,2.5,0,5.1,0,7.7h3.6c2.3,0,2.5-0.1,3-0.6c0.4-0.5,0.5-1,0.6-1.6
			c0.1-0.2,0.1-0.2,0.4-0.2c0.2,0,0.3,0.1,0.3,0.2c-0.1,0.8-0.1,1.8-0.1,2.6c0,0.9,0,1.9,0,2.8c0,0.2,0,0.2-0.2,0.2h-0.3
			c-0.2,0-0.2-0.2-0.2-0.3c0-1-0.5-1.8-1.5-2.1c-0.4-0.1-1.1-0.2-3.1-0.2h-2.6v2.3c0,4.5,0,5,0.3,5.6c0.3,0.8,1.7,1.2,4.1,1.2
			c3.4,0,4.6-0.7,5.9-3.9c0.1-0.2,0.2-0.2,0.4-0.1c0.3,0.1,0.3,0.2,0.2,0.5C159.4,32,159.4,32.1,159.2,33.5z"/>
	</g>
	<g>
		<path fill="#333333" d="M173.9,33.8V14.1h12.8v3.1h-8.8v4.6h7.2V25h-7.2v5.7h8.8v3.1H173.9z"/>
		<path fill="#333333" d="M203.2,33.8l-5.2-7.5l-5.3,7.5h-4.4l7.3-10.1l-6.9-9.6h4.6l4.8,7l4.9-7h4.4l-6.9,9.6l7.3,10.1H203.2z"/>
		<path fill="#333333" d="M217.3,26.6h-3.5v7.2h-4V14.1h7.5c4.7,0,6.8,2.9,6.8,6.3C224.1,23.8,222,26.6,217.3,26.6z M216.7,17
			c-0.2,0-2.8,0-2.8,0v6.8h2.8c2.6,0,3.5-1.5,3.5-3.4C220.2,18.5,219.3,17,216.7,17z"/>
		<path fill="#333333" d="M226.8,33.8V14.1h4v16.6h8.8v3.1H226.8z"/>
		<path fill="#333333" d="M251.3,34.4c-6,0-10.7-4.4-10.7-10.4c0-6,4.7-10.4,10.7-10.4c6,0,10.6,4.4,10.6,10.4
			C262,30,257.3,34.4,251.3,34.4z M251.3,16.7c-3.9,0-6.5,3-6.5,7.2c0,4.3,2.6,7.2,6.5,7.2c3.9,0,6.4-3,6.4-7.2
			C257.8,19.7,255.2,16.7,251.3,16.7z"/>
		<path fill="#333333" d="M279.5,34c-2.4,0-4.3-1-5.7-3.9l-2.1-4.2h-2.3v7.8h-4V14.1h7.7c4.7,0,6.7,2.8,6.7,5.9c0,2.8-1.6,5-4.3,5.6
			l1.9,3.4c1,1.7,1.9,2.3,3.3,2.3c0.4,0,0.7,0,1.1-0.2v2.5C281,33.9,280.2,34,279.5,34z M269.4,23.1h3.1c2.5,0,3.4-1.3,3.4-3.1
			c0-1.8-0.9-3.1-3.4-3.1c-0.2,0-3.1,0-3.1,0V23.1z"/>
		<path fill="#333333" d="M284.4,33.8V14.1h12.8v3.1h-8.8v4.6h7.2V25h-7.2v5.7h8.8v3.1H284.4z"/>
		<path fill="#333333" d="M315.1,34c-2.4,0-4.3-1-5.7-3.9l-2.1-4.2H305v7.8h-4V14.1h7.7c4.7,0,6.7,2.8,6.7,5.9c0,2.8-1.6,5-4.3,5.6
			L313,29c1,1.7,1.9,2.3,3.3,2.3c0.4,0,0.7,0,1.1-0.2v2.5C316.7,33.9,315.8,34,315.1,34z M305,23.1h3.1c2.5,0,3.4-1.3,3.4-3.1
			c0-1.8-0.9-3.1-3.4-3.1c-0.2,0-3.1,0-3.1,0V23.1z"/>
	</g>
	<line fill="#333333" stroke="#6A6361" stroke-dasharray="3" x1="166.5" y1="5.8" x2="166.5" y2="43.4"/>
	<circle fill="#333333" stroke="#6A6361" cx="166.4" cy="4.4" r="1.7"/>
	<circle fill="#333333" stroke="#6A6361" cx="166.6" cy="44" r="1.7"/>
</g>
</svg>
