<?xml version="1.0" encoding="utf-8"?>
<!-- Generator: Adobe Illustrator 18.1.1, SVG Export Plug-In . SVG Version: 6.00 Build 0)  -->
<svg version="1.1" id="Layer_1" xmlns="http://www.w3.org/2000/svg" xmlns:xlink="http://www.w3.org/1999/xlink" x="0px" y="0px"
	 viewBox="0 0 370 45" enable-background="new 0 0 370 45" xml:space="preserve">
<g>
	<g>
		<path fill="#3C4657" d="M182.2,7.5h15.4v3.1h-12V19h10.5v3h-10.5v11.5h-3.4V7.5z"/>
		<path fill="#3C4657" d="M208.7,7.5h15v3.1h-11.6v7.9h10.2v3h-10.2v8.9H224v3.1h-15.3V7.5z"/>
		<path fill="#3C4657" d="M234.9,7.5h7.1c3.4,0,6.6,0.5,9.2,2.1c3.7,2.3,5.8,6.2,5.8,10.8c0,4.3-1.9,8.1-5.2,10.5
			c-2.8,1.9-6.2,2.6-10.7,2.6h-6.3V7.5z M241.7,30.4c3.1,0,5.6-0.4,7.7-1.7c2.5-1.6,4.2-4.5,4.2-8.2c0-3.8-1.8-6.6-4.2-8.1
			c-2.3-1.5-5-1.8-7.8-1.8h-3.3v19.8H241.7z"/>
		<path fill="#3C4657" d="M266.3,7.5h15v3.1h-11.6v7.9h10.2v3h-10.2v8.9h11.9v3.1h-15.3V7.5z"/>
		<path fill="#3C4657" d="M292.5,7.5h7c2.6,0,5.1,0.1,7.2,1.3c2.2,1.2,3.6,3.2,3.6,6.1c0,2.8-1.4,4.9-3.3,6.1
			c-0.9,0.6-1.9,0.9-3,1.1l8.3,11.4h-4.1l-7.9-11.1H296v11.1h-3.4V7.5z M300.4,19.5c2.3,0,3.9-0.3,5.1-1.2c1-0.7,1.5-1.8,1.5-3.2
			c0-1.7-0.8-2.9-2.1-3.7c-1.4-0.8-3.1-0.9-5.6-0.9H296v9H300.4z"/>
		<path fill="#3C4657" d="M331.8,6.3l12.4,27.1h-3.7l-3.3-7.2h-10.9l-3.3,7.2h-3.5L331.8,6.3z M327.5,23.2h8.6c0,0-3.5-7.6-4.2-9.7
			h-0.1C330.9,15.6,327.5,23.2,327.5,23.2z"/>
		<path fill="#3C4657" d="M353.7,7.5h3.4v22.9h12.3v3.1h-15.7V7.5z"/>
	</g>
	<path fill="#F5C320" d="M164.3,0.5c0,0-7.3,2.5-15.4,0v0c0,0,0,0-0.1,0c0,0,0,0-0.1,0v0c-8.1,2.4-15.4,0-15.4,0s-21,28.7,15.4,43.7
		c0,0,0,0,0.1,0c0,0,0.1,0,0.1,0C185.3,29.2,164.3,0.5,164.3,0.5z"/>
	<path fill="#FFFFFF" d="M141.6,25.5c4.7,3.7,12.7,1.9,12.7,1.9s-2.2-3.1-0.2-4.5c1.9-1.4,5.8,0,5.8,0c0.3-5-4.8-5.1-4.8-5.1
		s-0.7-3.1-5.9-3.1C140.1,14.7,141.6,25.5,141.6,25.5"/>
	<g>
		<path fill="#3C4657" d="M14.2,7.1c7.5,0,13.2,5.8,13.2,13.4s-5.7,13.4-13.2,13.4C6.7,33.8,1,28,1,20.5S6.7,7.1,14.2,7.1z
			 M14.2,30.7c5.7,0,9.8-4.5,9.8-10.2s-4.1-10.2-9.8-10.2c-5.7,0-9.8,4.5-9.8,10.2S8.6,30.7,14.2,30.7z"/>
		<path fill="#3C4657" d="M38.3,7.5H45c2.8,0,5.4,0.1,7.7,1.4c2.3,1.3,3.8,3.4,3.8,6.4c0,2.9-1.4,5.2-3.5,6.5
			c-2.3,1.4-5.3,1.5-8.6,1.5h-2.7v10.3h-3.4V7.5z M44.8,20.2c3.1,0,4.8-0.1,6.2-1c1.3-0.8,2.1-2.1,2.1-3.8c0-1.9-0.9-3.3-2.4-4
			c-1.6-0.8-3.5-0.8-5.9-0.8h-3.1v9.7H44.8z"/>
		<path fill="#3C4657" d="M67,7.5h15v3.1H70.4v7.9h10.2v3H70.4v8.9h11.9v3.1H67V7.5z"/>
		<path fill="#3C4657" d="M93.3,33.5V10l0-3.7c0,0,17.1,18.2,18.6,20.2l0.1,0c0-2.3-0.1-3.5-0.1-6V7.5h3.3v23.4l0,3.7
			c0,0-17.1-18.2-18.6-20.3l-0.1,0c0,2.3,0.1,3.6,0.1,6.1v13.1H93.3z"/>
	</g>
</g>
</svg>
