<svg xmlns="http://www.w3.org/2000/svg" width="282.5" height="56.1" viewBox="0 0 282.5 56.1">
  <path fill="#333" d="M24.1 46.6v8.3c0 .3-.1.5-.3.7-.2.2-.4.3-.7.3h-7c-.3 0-.5-.1-.7-.3-.2-.2-.3-.4-.3-.7v-24c0-.3.1-.5.3-.7.2-.2.4-.3.7-.3h9.8c2.1 0 3.9.1 5.5.4 1.6.3 2.9.8 4 1.4 1.1.7 1.9 1.5 2.4 2.6s.8 2.3.8 3.8c0 2.9-.9 5.1-2.8 6.5-1.9 1.4-4.6 2.1-8.2 2h-3.5zm0-10.6v4.7l1.7.1c2.7.1 4-.7 4-2.4 0-.8-.3-1.5-1-1.9-.7-.5-1.6-.6-2.8-.5h-1.9zM59.8 56.1c-.2 0-.3-.1-.5-.2s-.3-.2-.4-.4l-1.7-3.3H44.8l-1.7 3.3c-.1.2-.2.3-.4.4-.2.1-.4.2-.5.2h-6.9c-.4 0-.8-.2-1-.5-.2-.3-.2-.7 0-1l13.6-24c.1-.1.2-.3.4-.4.2-.1.4-.2.5-.2h5.9c.2 0 .3.1.5.2s.3.2.4.4l12.8 24c.2.4.2.7 0 1-.2.3-.5.4-.9.4h-7.7zM48 46.4h6.2l-3-5.8-3.2 5.8zM208.8 56.1c-.2 0-.4-.1-.6-.3-.2-.2-.2-.4-.2-.7v-24c0-.3.1-.5.2-.7.2-.2.4-.3.6-.3h6.2c.2 0 .4.1.6.3.2.2.2.4.2.7v24c0 .3-.1.5-.2.7-.2.2-.4.3-.6.3h-6.2zM255.6 30.1c.3 0 .5.1.7.3.2.2.3.4.3.7v24c0 .3-.1.5-.3.7-.2.2-.4.3-.7.3H249c-.3 0-.5-.1-.7-.3-.2-.2-.3-.4-.3-.7v-13l-7.2 13.4c-.1.2-.2.3-.4.4-.2.1-.3.2-.5.2h-3.1c-.2 0-.3-.1-.5-.2s-.3-.2-.4-.4l-7.2-13.4V55c0 .3-.1.5-.3.7-.2.2-.4.3-.7.3H221c-.3 0-.5-.1-.7-.3-.2-.2-.3-.4-.3-.7V31c0-.3.1-.5.3-.7.2-.2.4-.3.7-.3h7.8c.1 0 .3 0 .5.1s.3.2.4.3l8.7 14.1 8.6-14.1c.1-.1.2-.2.4-.3.2-.1.3-.1.5-.1h7.7zM261.3 56.1c-.3 0-.5-.1-.7-.3-.2-.2-.3-.4-.3-.7v-24c0-.3.1-.5.3-.7.2-.2.4-.3.7-.3h19.3c.3 0 .5.1.7.3.2.2.3.4.3.7v4.8c0 .3-.1.5-.3.7-.2.2-.4.3-.7.3h-11.1v2.7h9.5c.3 0 .5.1.7.3.2.2.3.4.3.7v4.8c0 .3-.1.5-.3.7-.2.2-.4.3-.7.3h-9.5v2.8h12c.3 0 .5.1.7.3.2.2.3.4.3.7V55c0 .3-.1.5-.3.7-.2.2-.4.3-.7.3h-20.2z"/>
  <path fill="#333" d="M24.1 46.6v8.3c0 .3-.1.5-.3.7-.2.2-.4.3-.7.3h-7c-.3 0-.5-.1-.7-.3-.2-.2-.3-.4-.3-.7v-24c0-.3.1-.5.3-.7.2-.2.4-.3.7-.3h9.8c2.1 0 3.9.1 5.5.4 1.6.3 2.9.8 4 1.4 1.1.7 1.9 1.5 2.4 2.6s.8 2.3.8 3.8c0 2.9-.9 5.1-2.8 6.5-1.9 1.4-4.6 2.1-8.2 2h-3.5zm0-10.6v4.7l1.7.1c2.7.1 4-.7 4-2.4 0-.8-.3-1.5-1-1.9-.7-.5-1.6-.6-2.8-.5h-1.9zM81.2 46.9v8.2c0 .3-.1.5-.3.7-.2.2-.4.3-.7.3h-7.4c-.3 0-.5-.1-.7-.3-.2-.2-.3-.4-.3-.7v-24c0-.3.1-.5.3-.7.2-.2.4-.3.7-.3h16.7c2.9 0 5.1.6 6.9 1.9 1.9 1.4 2.8 3.2 2.8 5.4 0 2.5-.8 4.3-2.3 5.5-.4.3-.8.6-1.3.8-.5.3-1 .5-1.6.7.7.4 1.3.8 1.8 1.2.5.4.9.9 1.2 1.3l4.5 7.7c.2.4.2.7 0 1-.2.3-.5.5-.9.5h-8.4c-.2 0-.3-.1-.5-.2s-.3-.2-.4-.4l-4.2-7.9v.1l-.3-.3-.3-.3c-.2-.1-.9-.2-2.1-.2h-3.2zM81 36v5h4c1.6 0 2.8-.2 3.7-.6.8-.4 1.3-1.1 1.3-2 0-.8-.3-1.4-1-1.8-.6-.4-1.6-.6-2.8-.6H81zM110.9 56.1c-.3 0-.5-.1-.7-.3-.2-.2-.3-.4-.3-.7V36.6H103c-.3 0-.5-.1-.7-.3-.2-.2-.3-.4-.3-.7v-4.5c0-.3.1-.5.3-.7.2-.2.4-.3.7-.3h23c.3 0 .5.1.7.3.2.2.3.4.3.7v4.5c0 .3-.1.5-.3.7-.2.2-.4.3-.7.3h-6.8v18.5c0 .3-.1.5-.3.7-.2.2-.4.3-.7.3h-7.3zM188.3 56.1c-.3 0-.5-.1-.7-.3-.2-.2-.3-.4-.3-.7V36.6h-6.9c-.3 0-.5-.1-.7-.3-.2-.2-.3-.4-.3-.7v-4.5c0-.3.1-.5.3-.7.2-.2.4-.3.7-.3h23c.3 0 .5.1.7.3.2.2.3.4.3.7v4.5c0 .3-.1.5-.3.7-.2.2-.4.3-.7.3h-6.8v18.5c0 .3-.1.5-.3.7-.2.2-.4.3-.7.3h-7.3zM161.4 30.1c.5 0 .8.2 1 .6.2.4.1.7-.1 1.1l-11.5 13.9v9.4c0 .3-.1.5-.3.7-.2.2-.4.3-.7.3h-7.4c-.3 0-.5-.1-.7-.3-.2-.2-.3-.4-.3-.7v-9.4l-11.6-13.9c-.3-.4-.4-.7-.2-1.1.2-.4.5-.6 1-.6h8.6c.1 0 .3 0 .4.1.2.1.3.2.4.2l6.7 8.3 6.1-8.3c0-.1.2-.2.4-.3.2-.1.4-.1.5-.1h7.7zM15.4 7.5c-1.7 3-2.1 7.8-2.7 12.4 3.4-.5 5.8-4.4 5.8-8.1 0-3.7-2.3-7.4-7.9-7.4-5.8 0-8.5 4.4-8.5 8.2 0 2.9 1.5 5.4 4.4 5.4.4 0 .7-.1 1.1-.1L8 20c-.5.2-1 .3-1.6.3-4.2 0-6.4-3.4-6.4-7.2 0-4.7 3.4-10 10.9-10 6.9 0 9.9 4.3 9.9 8.7 0 4.6-3.2 9.2-8.3 9.4-.8 5.6-2.2 10.4-6.8 10.4-2.9 0-4.6-1.7-4.6-4.3 0-2.1 1.4-4.1 4-4.2v2.1c-1.3.3-2.1 1.5-2.1 2.7 0 1.6 1.2 2.6 2.7 2.6 6.5 0 3.3-16 7.5-23.7l2.2.7zM29 20.1c-.6 1.5-1.7 2.6-2.9 3-.9 1.8-2.2 2.9-3.8 2.9-1.7 0-2.5-1.8-2.5-4.1 0-1.4.3-3 .8-4.5l.9.2c.3-2 1.3-3.6 3.1-3.6 1.7 0 2.6 2 2.6 4.2 0 1.2-.3 2.5-.6 3.6.7-.3 1.3-.9 1.7-2.1.2 0 .7.2.7.4zm-5.2 3c-1.1-.4-1.7-1.4-2.1-2.6-.1.4-.1.8-.1 1.1 0 1.5.4 2.5 1 2.5h.2c.4-.1.7-.5 1-1zm-1-4c0 1.4.4 2.7 1.5 3 .6-1.3.9-3.1.9-4.5 0-1.1-.3-2-1-2H24c-.7.2-1.2 1.8-1.2 3.5z"/>
  <path fill="#333" d="M34 19.7c.1 0 .6.2.6.3-1.5 4.1-2.7 6-4.3 6-1.5 0-2.1-1.5-2.1-4.1 0-1.8.3-4.3.8-7.2 1.1-6.4 2.7-9.2 4.2-9.2 1.3 0 1.7 1.1 1.7 2.4 0 1.5-.5 3.3-.8 4.1-1 3.3-2.7 5.8-3.7 7-.1 1.1-.2 2.1-.2 2.9 0 1.7.4 2.2 1 2.2.8 0 1.7-1.5 2.8-4.4zm-.5-12.5c-.7 0-2.2 5.5-2.9 10.2 1.3-2.3 3.1-6.5 3.2-9.6 0-.4-.1-.6-.3-.6z"/>
  <path fill="#333" d="M37.4 14.2c-.9 4-1.6 6.9-1.6 9 0 .7.3.9.5.9.7 0 1.5-1.4 2.6-4.3.1 0 .7.2.7.3-1.1 2.9-2 5.8-4.1 5.8-1.4 0-1.8-1.3-1.8-3 0-2.8 1.1-6.8 1.5-8.7h2.2zm-1.9-2.7c0-.9.7-2 1.8-2 .8 0 1.2.6 1.2 1.3 0 .9-.7 2-1.8 2-.8 0-1.2-.6-1.2-1.3z"/>
  <path fill="#333" d="M42.8 8.3c-.1 2.1-.4 4-.8 6 .4 0 .8 0 1-.1l-.2 1.2h-1c-.2 1-.5 2-.8 3-.3 1.7-.4 3.1-.4 4 0 1.1.2 1.6.5 1.6.7 0 1.7-2.4 2.4-4.3.2 0 .7.2.7.4-1.5 4.1-2.3 5.8-3.9 5.8-1.1 0-1.6-1.4-1.6-3.5 0-1.8.3-4.4.9-6.9h-1.1l.2-1.2h1.1c.3-1.7.7-3.4 1.2-6h1.8z"/>
  <path fill="#333" d="M46.8 14.2c-.9 4-1.6 6.9-1.6 9 0 .7.3.9.5.9.7 0 1.5-1.4 2.6-4.3.1 0 .7.2.7.3-1.1 2.9-2 5.8-4.1 5.8-1.4 0-1.8-1.3-1.8-3 0-2.8 1.1-6.8 1.5-8.7h2.2zM45 11.5c0-.9.7-2 1.8-2 .8 0 1.2.6 1.2 1.3 0 .9-.7 2-1.8 2-.8 0-1.2-.6-1.2-1.3z"/>
  <path fill="#333" d="M52.3 19.2c.5-.9.8-2 .8-2.7 0-.5-.2-.9-.5-.9-1.3 0-2.5 3-2.5 5.4 0 1.6.5 2.9 1.8 2.9 1.2 0 2.6-1.4 3.7-4.2.2 0 .7.2.7.4-.8 2-2.7 6-5.4 6-2 0-2.8-2-2.8-4.4 0-3.4 1.8-7.6 4.6-7.6 1.4 0 2 1.2 2 2.6 0 1.1-.3 2.3-.8 3.4l-1.6-.9z"/>
  <path fill="#333" d="M61.6 14.3h1.8c-.8 3.4-1.2 6.1-1.6 8.6-.1.3-.1.5-.1.7 0 .4.1.6.2.6.3 0 1.3-1.2 2.6-4.4.2 0 .7.2.7.4-1.5 4.1-2.8 5.8-4 5.8-.8 0-1.3-.7-1.3-2.5v-.3c-.6 1.5-1.5 2.9-2.9 2.9-1.2 0-1.7-1.4-1.7-3.2 0-3.6 2-8.8 4.4-8.8.9 0 1.5.6 1.6 1.7l.3-1.5zm-4.2 8.3c0 .8.2 1.3.5 1.3 1.2 0 2.6-4.1 2.6-6.5 0-.9-.2-1.6-.8-1.6-1 0-2.3 4.5-2.3 6.8z"/>
  <path fill="#333" d="M70.2 19.7c.1 0 .6.2.6.3-1.5 4.1-2.7 6-4.3 6-1.5 0-2.1-1.5-2.1-4.1 0-1.8.3-4.3.8-7.2 1.1-6.4 2.7-9.2 4.2-9.2 1.3 0 1.7 1.1 1.7 2.4 0 1.5-.5 3.3-.8 4.1-1 3.3-2.7 5.8-3.7 7-.1 1.1-.2 2.1-.2 2.9 0 1.7.4 2.2 1 2.2.8 0 1.7-1.5 2.8-4.4zm-.5-12.5c-.7 0-2.2 5.5-2.9 10.2 1.3-2.3 3.1-6.5 3.2-9.6 0-.4-.2-.6-.3-.6zM78.5 16.8c-.3-.3-.6-.4-.9-.4-.2 0-.4.1-.6.2l-.6.3c.1-.3.3-.5.3-.7.3-.5.2-1.1-.2-1.5l-.5-.5c.2 0 .8.1.8.1h.1c.5 0 .9-.3 1.1-.7.1-.1.2-.4.3-.7l.1.7c.1.6.5 1 1.1 1.1l.7.1c-.3.1-.5.2-.6.3-.5.3-.8.8-.7 1.4l.1.7c-.2-.1-.4-.3-.5-.4z"/>
  <path fill="#404040" d="M77.9 15.1l.1.1c0 .1-.1.1-.1.2h-.2v-.2c.1 0 .2-.1.2-.1m.9-5.1c-.1 0-.1 0-.2.1-.1.2-1.2 2.4-1.6 3 0 .1-.1.1-.2.1-.6-.1-2.9-.5-3.4-.6h-.1c-.2 0-.2.2-.1.3.1.1 1.9 2 2.4 2.5.1.1.1.2 0 .3-.3.6-1.5 2.9-1.6 3.1-.1.2 0 .3.1.3h.1c.4-.2 2.4-1.2 3.1-1.5h.1c.1 0 .1 0 .2.1.5.5 2 2.1 2.4 2.4.1.1.1.1.2.1s.2-.1.1-.3c0-.2-.4-2.6-.5-3.3 0-.1 0-.2.1-.3l3-1.5c.2-.1.2-.3-.1-.3-.2 0-2.7-.4-3.4-.5-.1 0-.2-.1-.2-.2-.1-.7-.4-2.8-.5-3.4.2-.4.1-.4.1-.4z"/>
  <path fill="#333" stroke="#404040" stroke-width="1.22" stroke-miterlimit="10" d="M105.1 16.3c-.1-.1-1.6-1-2-1.3-.1 0-.1-.1-.1-.2.1-.5.5-1.9.6-2.3 0-.2-.1-.2-.2-.1s-1.5 1.2-1.9 1.5c-.1 0-.1.1-.2 0-.4-.3-1.7-1.2-2-1.3-.2-.1-.2 0-.2.1s.7 1.8.8 2.3v.2c-.4.3-1.8 1.4-1.9 1.5-.1.1-.1.2.1.2.3 0 1.9-.1 2.4-.1.1 0 .2 0 .2.1.2.4.7 1.9.8 2.2.1.2.2.2.2 0s.5-1.8.6-2.3c0-.1.1-.1.2-.1.5 0 2.2-.1 2.4-.1.3-.1.3-.2.2-.3z"/>
  <path fill="#333" stroke="#404040" stroke-width="1.819" stroke-miterlimit="10" d="M93.8 5l-.1-3.6-3.3 1.5-3.4-1 .4 3.5-2 3 3.5.7 2.2 2.8 1.8-3.1 3.3-1.2z"/>
  <path fill="#333" d="M86.7 23.2l-3.8-2.5 3.4-3.1 1.2-4.3 3.9 2.2 4.6-.2-1 4.5 1.6 4.2-4.5.5-3.5 2.8"/>
  <path fill="#404040" d="M88.1 14.6l3.2 1.8 3.6-.1-.7 3.6 1.3 3.4-3.6.4-2.8 2.2-1.5-3.3-3-2 2.7-2.4.8-3.6m-1.2-2.7l-.6 2.2-.8 3-2.3 2.1-1.7 1.6 1.9 1.3 2.6 1.7 1.3 2.8 1 2.1 1.8-1.4 2.4-1.9 3.1-.4 2.3-.3-.8-2.2-1.1-2.8.6-3 .5-2.3-2.3.1-3.1.1-2.7-1.5-2.1-1.2z"/>
  <path fill="#333" d="M90.9 18.1l.1.3c0 .1 0 .1-.1.2l-.8.4c-.1.1-.1 0-.1 0l-.1-.6c0-.1 0-.1-.1-.1H89.5c-.1 0-.1 0-.1.1v.2l.1.5c0 .1 0 .1.1.2l.1.1 1.3.7c.1.1.2.1.2.2s.1.2.1.3l.2 1.2c.1.3 0 .5-.1.8-.1.2-.3.4-.6.5l.1.3c0 .1 0 .1-.1.1l-.5.1c-.1 0-.1 0-.1-.1l-.2-.4c-.3 0-.5-.1-.7-.3-.2-.2-.3-.4-.4-.7l-.1-.5c0-.1 0-.1.1-.2l.8-.4c.1 0 .1 0 .1.1l.1.8c0 .1 0 .1.1.1H90.3c.1 0 .1 0 .1-.1v-.2l-.2-.9c0-.1 0-.1-.1-.2 0-.1-.1-.1-.1-.1l-1.3-.7c-.1-.1-.2-.1-.2-.2-.1-.1-.1-.2-.1-.3l-.1-.8c-.1-.3 0-.5.1-.8.1-.2.3-.4.6-.5V17c0-.1 0-.1.1-.2l.5-.1c.1 0 .1 0 .1.1l.1.3c.3 0 .5.1.7.3.2.2.3.5.4.7z"/>
</svg>
