<?xml version="1.0" encoding="utf-8"?>
<!-- Generator: Adobe Illustrator 18.1.1, SVG Export Plug-In . SVG Version: 6.00 Build 0)  -->
<svg version="1.1" id="Layer_1" xmlns="http://www.w3.org/2000/svg" xmlns:xlink="http://www.w3.org/1999/xlink" x="0px" y="0px"
	 viewBox="0 0 72.4 80" enable-background="new 0 0 72.4 80" xml:space="preserve">
<g>
	<path fill="#FFFFFF" d="M56.6,2.7c-2.6-1-5.2-1.5-7.9-1.5c-8.1,0-15.6,4.5-19.5,11.4c-0.7-0.1-1.4-0.1-2.1-0.1
		c-10.4,0-19.9,6.5-23.5,16.3c-3.7,9.8-0.9,20.6,6.4,27.4c2,9.3,8.5,17.5,18.1,21.2c3.3,1.3,6.8,1.9,10.3,1.9
		c12,0,22.8-7.5,27.1-18.7c2.8-7.3,2.4-15-0.5-21.6c2-2.1,3.6-4.6,4.6-7.4C74,20.1,68.2,7.1,56.6,2.7z"/>
	<path opacity="0.5" fill="#F7DB05" d="M27.9,15.9c4.3-11.3,17-17.1,28.3-12.8c11.3,4.3,17,17,12.7,28.3
		c-4.3,11.3-17,17.1-28.3,12.7C29.3,39.9,23.6,27.2,27.9,15.9z"/>
	<path opacity="0.8" fill="#F7DB05" d="M4,29C8.8,16.2,23.1,9.8,35.9,14.6c12.8,4.8,19.2,19.1,14.4,31.9
		c-4.8,12.8-19.1,19.2-31.9,14.4C5.5,56.1-0.9,41.8,4,29z"/>
	<path fill="#E8EBED" d="M11.7,40.4c5.6-14.7,22.1-22.2,36.8-16.6c14.7,5.6,22.2,22.1,16.6,36.8C59.5,75.4,43,82.8,28.3,77.2
		C13.5,71.6,6.1,55.1,11.7,40.4z"/>
	<g>
		<path fill="#E7C04A" d="M27.1,63c-3,0-6-0.6-8.9-1.6C5.2,56.4-1.4,41.9,3.6,28.9c3.7-9.7,13.1-16.3,23.5-16.3c3,0,6.1,0.6,8.9,1.6
			c13,4.9,19.5,19.5,14.6,32.5C47,56.4,37.5,63,27.1,63z M27.1,13.4c-10.1,0-19.2,6.3-22.8,15.7c-4.8,12.6,1.6,26.6,14.1,31.4
			c2.8,1.1,5.7,1.6,8.6,1.6c10.1,0,19.2-6.3,22.8-15.7c4.8-12.6-1.6-26.6-14.1-31.4C33,14,30,13.4,27.1,13.4z"/>
	</g>
	<g>
		<path fill="#E7C04A" d="M38.3,79.3c-3.5,0-7-0.6-10.3-1.9C13.1,71.7,5.6,55,11.2,40c4.2-11.2,15.1-18.7,27.1-18.7
			c3.5,0,7,0.6,10.3,1.9c14.9,5.7,22.5,22.4,16.8,37.4C61.1,71.8,50.3,79.3,38.3,79.3z M38.3,22.2c-11.6,0-22.2,7.3-26.3,18.2
			c-5.5,14.5,1.8,30.8,16.3,36.3c3.2,1.2,6.6,1.8,10,1.8c11.6,0,22.2-7.3,26.3-18.2c5.5-14.5-1.8-30.8-16.3-36.3
			C45.1,22.8,41.7,22.2,38.3,22.2z"/>
	</g>
	<g>
		<path fill="#E7C04A" d="M48.7,46c-2.7,0-5.4-0.5-7.9-1.5c-5.6-2.1-10-6.3-12.5-11.7c-2.5-5.4-2.6-11.5-0.5-17.1
			C31,7.1,39.4,1.3,48.7,1.3c2.7,0,5.4,0.5,7.9,1.5c11.5,4.4,17.4,17.3,13,28.9C66.3,40.2,57.9,46,48.7,46z M48.7,2.1
			c-8.9,0-17,5.6-20.1,13.9c-2,5.4-1.9,11.2,0.5,16.5c2.4,5.2,6.6,9.3,12,11.3c2.5,0.9,5,1.4,7.6,1.4c8.9,0,17-5.6,20.1-13.9
			C73,20.2,67.4,7.7,56.3,3.5C53.8,2.6,51.3,2.1,48.7,2.1z"/>
	</g>
</g>
</svg>
