<svg xmlns="http://www.w3.org/2000/svg" width="74.9" height="84.6" viewBox="0 0 74.9 84.6">
  <path fill="none" d="M59 2.4c-2.7-1-5.5-1.5-8.3-1.5-8.3 0-16 4.5-20.2 11.6 2.2.3 4.4.8 6.5 1.6 5 1.9 9.2 5.2 12.2 9.2.5.2.9.3 1.4.5 8 3 14 9 17.4 16.2 1.9-2.1 3.5-4.6 4.6-7.4C77.1 20.5 71 7 59 2.4z"/>
  <path fill="#E8ECEE" d="M67.6 41.6c-3.9 3.8-9 6.3-14.5 6.8l-.3.9c-4 10.5-14.3 17.6-25.5 17.6-3.3 0-6.6-.6-9.7-1.8-2.9-1.1-5.5-2.6-7.7-4.5C12.2 69.9 19 78 28.6 81.7c3.5 1.3 7.1 2 10.8 2C52 83.7 63.5 75.8 68 64c2.8-7.6 2.5-15.5-.4-22.4z"/>
  <path fill="#E3D569" d="M53.4 47.5c5.3-.6 10.2-3.1 13.8-6.8-3.2-7.1-9.1-13.1-17-16-.1 0-.1 0-.2-.1 4.4 6.5 5.8 14.9 3.4 22.9z"/>
  <path fill="#FCD942" d="M10.1 42c3-7.8 9-14 16.3-17.4 0-3 .5-6 1.6-8.9.3-.8.7-1.6 1.1-2.4-.6 0-1.2-.1-1.8-.1-10.9 0-20.8 6.9-24.7 17-3.8 9.9-1.1 20.7 5.8 27.8-.8-5.2-.3-10.7 1.7-16z"/>
  <path fill="#F7C41E" d="M27.3 24.2c3.8-1.6 7.9-2.5 12.1-2.5 2.8 0 5.5.4 8.2 1.1-2.8-3.4-6.6-6.2-11-7.9-2.1-.8-4.4-1.3-6.6-1.6-.5.9-.9 1.7-1.2 2.6-1 2.8-1.5 5.5-1.5 8.3z"/>
  <path fill="#E5C93F" d="M17.9 64.3c3 1.1 6.2 1.7 9.4 1.7 10.9 0 20.8-6.9 24.7-17 .1-.2.1-.3.2-.5-.5 0-1 .1-1.5.1-2.9 0-5.8-.5-8.6-1.6-6.1-2.3-10.9-6.8-13.5-12.7-1.2-2.8-1.9-5.7-2.1-8.6-7 3.3-12.7 9.2-15.5 16.7C8.9 48 8.5 53.8 9.6 59.2c2.3 2.1 5.1 3.9 8.3 5.1z"/>
  <path fill="#E1B51D" d="M39.5 22.6c-4.3 0-8.4.9-12.1 2.6.1 3 .8 5.9 2 8.7 2.6 5.7 7.2 10 13 12.3 2.7 1 5.5 1.5 8.3 1.5.6 0 1.2 0 1.8-.1 2.6-8.2.9-16.9-3.8-23.5-3.1-1-6.1-1.5-9.2-1.5z"/>
  <path fill="none" d="M27.3 66c10.9 0 20.8-6.9 24.7-17 .1-.2.1-.3.2-.5-.5 0-1 .1-1.5.1-2.9 0-5.8-.5-8.6-1.6-6.1-2.3-10.9-6.8-13.5-12.7-1.2-2.8-1.9-5.7-2.1-8.6-7 3.3-12.7 9.2-15.5 16.7C8.9 48 8.5 53.8 9.6 59.2c2.4 2.2 5.2 4 8.4 5.2 3 1 6.1 1.6 9.3 1.6z"/>
  <path fill="none" d="M26.4 24.6c0-3 .5-6 1.6-8.9.3-.8.7-1.6 1.1-2.4-.6 0-1.2-.1-1.8-.1-10.9 0-20.8 6.9-24.7 17-3.8 9.9-1.1 20.7 5.8 27.8-.8-5.2-.4-10.7 1.6-16 3-7.8 9-14 16.4-17.4zM53.1 48.4l-.3.9c-4 10.5-14.3 17.6-25.5 17.6-3.3 0-6.6-.6-9.7-1.8-2.9-1.1-5.5-2.6-7.7-4.5C12.2 69.9 19 78 28.6 81.7c3.5 1.3 7.1 2 10.8 2C52 83.7 63.5 75.8 68 64c2.9-7.5 2.5-15.5-.3-22.4-3.9 3.8-9 6.2-14.6 6.8z"/>
  <path fill="#FAE671" d="M59 2.4c-2.7-1-5.5-1.5-8.3-1.5-8.3 0-16 4.5-20.2 11.6 2.2.3 4.4.8 6.5 1.6 5 1.9 9.2 5.2 12.2 9.2.5.2.9.3 1.4.5 8 3 14 9 17.4 16.2 1.9-2.1 3.5-4.6 4.6-7.4C77.1 20.5 71 7 59 2.4z"/>
  <path fill="#D2B246" d="M59.3 1.6C56.5.6 53.6 0 50.7 0c-8.8 0-16.9 4.9-21.1 12.4-.7-.1-1.5-.1-2.2-.1-11.4 0-21.6 7.1-25.6 17.6-4 10.7-.9 22.3 6.9 29.7 2.1 10.1 9.2 19 19.6 22.9 3.6 1.4 7.3 2.1 11.1 2.1 13 0 24.8-8.1 29.4-20.3 3-7.9 2.6-16.2-.5-23.4 2.1-2.3 3.9-5 5-8 4.8-12.5-1.5-26.6-14-31.3zm-6.8 46c-.6 0-1.2.1-1.8.1-2.8 0-5.6-.5-8.3-1.5-5.8-2.2-10.5-6.6-13-12.3-1.2-2.8-1.9-5.7-2-8.7 3.8-1.6 7.9-2.6 12.1-2.6 3.1 0 6.2.5 9.2 1.4 4.7 6.6 6.4 15.3 3.8 23.6zM50 24.5c.1 0 .1 0 .2.1 7.9 3 13.8 8.9 17 16-3.7 3.7-8.5 6.2-13.8 6.8 2.4-7.9 1-16.3-3.4-22.9zm-10.5-2.8c-4.2 0-8.4.9-12.1 2.5 0-2.8.5-5.6 1.5-8.2.3-.9.8-1.8 1.2-2.6 2.3.2 4.5.8 6.6 1.6 4.5 1.7 8.2 4.5 11 7.9-2.7-.8-5.5-1.2-8.2-1.2zM67.9 40c-3.3-7.2-9.4-13.2-17.4-16.2-.5-.2-.9-.3-1.4-.5-3-4-7.1-7.3-12.2-9.2-2.1-.8-4.3-1.3-6.5-1.6C34.6 5.4 42.3.9 50.7.9c2.8 0 5.6.5 8.3 1.5C71 7 77.1 20.5 72.5 32.6c-1 2.7-2.6 5.2-4.6 7.4zM8.4 58.1C1.5 51-1.2 40.2 2.6 30.3c3.9-10.2 13.8-17 24.7-17 .6 0 1.2 0 1.8.1-.4.8-.8 1.6-1.1 2.4-1.1 2.9-1.6 5.9-1.6 9C19 28 13 34.2 10.1 42c-2 5.3-2.5 10.8-1.7 16.1zm2.5-15.8c2.8-7.5 8.5-13.4 15.5-16.7.2 2.9.9 5.9 2.1 8.6C31.2 40.1 36 44.7 42.1 47c2.8 1 5.7 1.6 8.6 1.6.5 0 1 0 1.5-.1-.1.1-.2.3-.2.5-3.9 10.2-13.8 17-24.7 17-3.2 0-6.3-.6-9.4-1.7-3.2-1.2-6-3-8.4-5.2-1.1-5.4-.7-11.2 1.4-16.8zM68 64c-4.5 11.8-16 19.7-28.6 19.7-3.7 0-7.3-.7-10.8-2C19 78 12.2 69.9 9.9 60.6c2.3 1.9 4.9 3.4 7.7 4.5 3.1 1.2 6.4 1.8 9.7 1.8 11.3 0 21.5-7.1 25.5-17.6l.3-.9c5.5-.6 10.6-3 14.5-6.8 2.9 6.9 3.2 14.8.4 22.4z"/>
</svg>